# xmcd CD database file
#
# Track frame offsets:
#	150
#	25572
#	37437
#	52877
#	69355
#	87810
#	105215
#	122277
#	139217
#	153262
#	169717
#	187157
#
# Disc length: 2739 seconds
#
# Revision: 0
# Processed by: cddbd v1.5.1PL2 Copyright (c) Steve Scherf et al.
# Submitted via: CDex 1.51
#
DISCID=910ab10c
DTITLE=Apaporn Nakornsawan - Hit jung dung jing CD2
DYEAR=1900
DGENRE=Blues
TTITLE0=Apaporn Nakornsawan Hit jung dung jing CD2
TTITLE1=Apaporn Nakornsawan Hit jung dung jing CD2
TTITLE2=Apaporn Nakornsawan Hit jung dung jing CD2
TTITLE3=Apaporn Nakornsawan Hit jung dung jing CD2
TTITLE4=Apaporn Nakornsawan Hit jung dung jing CD2
TTITLE5=Apaporn Nakornsawan Hit jung dung jing CD2
TTITLE6=Apaporn Nakornsawan Hit jung dung jing CD2
TTITLE7=Apaporn Nakornsawan Hit jung dung jing CD2
TTITLE8=Apaporn Nakornsawan Hit jung dung jing CD2
TTITLE9=Apaporn Nakornsawan Hit jung dung jing CD2
TTITLE10=Apaporn Nakornsawan Hit jung dung jing CD2
TTITLE11=Apaporn Nakornsawan Hit jung dung jing CD2
EXTD=
EXTT0=
EXTT1=
EXTT2=
EXTT3=
EXTT4=
EXTT5=
EXTT6=
EXTT7=
EXTT8=
EXTT9=
EXTT10=
EXTT11=
PLAYORDER=
